# xmcd CD database file
#
# Track frame offsets:
#	150
#	17976
#	32906
#	57250
#	70213
#	84187
#	94799
#	109562
#	138250
#	149701
#	167259
#	180176
#	193080
#
# Disc length: 2737 seconds
#
# Revision: 0
# Processed by: cddbd v1.5.1PL2 Copyright (c) Steve Scherf et al.
# Submitted via: CDex 1.51
#
DISCID=a80aaf0d
DTITLE=B4 (Will Foraker and Da Bologna) - Pino's Favorites
DYEAR=2003
DGENRE=Jazz
TTITLE0=Back on Bass
TTITLE1=Satin Doll
TTITLE2=Cheek to Cheek
TTITLE3=Don't Get Around Much Any More
TTITLE4=Misty
TTITLE5=Sunny Side of the Street
TTITLE6=On Green Dolphin Street
TTITLE7=All of Me (A Train)
TTITLE8=How High the Moon
TTITLE9=Gee Baby
TTITLE10=Fly Me to the Moon
TTITLE11=Route 66
TTITLE12=Just Friends
EXTD=YEAR: 2003
EXTT0=
EXTT1=
EXTT2=
EXTT3=
EXTT4=
EXTT5=
EXTT6=
EXTT7=
EXTT8=
EXTT9=
EXTT10=
EXTT11=
EXTT12=
PLAYORDER=
